<?xml version="1.0" encoding="utf-8"?>
<!-- Generator: Adobe Illustrator 24.1.2, SVG Export Plug-In . SVG Version: 6.00 Build 0)  -->
<svg version="1.1" id="Слой_1" xmlns="http://www.w3.org/2000/svg" xmlns:xlink="http://www.w3.org/1999/xlink" x="0px" y="0px"
	 viewBox="0 0 140 84" style="enable-background:new 0 0 140 84;" xml:space="preserve">
<style type="text/css">
	.st0{fill:#64242E;}
</style>
<g>
	<polygon class="st0" points="0.09,70.2 0.09,15.44 29.98,15.44 29.98,19.02 9.13,19.02 9.13,38.11 26.84,38.11 26.84,41.53 
		9.13,41.53 9.13,66.78 33.04,66.78 33.04,70.2 	"/>
	<path class="st0" d="M87.59,15.44h-7.66l-15.3,51.33H44.69V15.44h-9.04V70.2h31.58l4.08-13.54h18.8L93.9,70.2h9.32L87.59,15.44z
		 M72.17,53.24L81,23.9l8.3,29.34H72.17z"/>
	<polygon class="st0" points="105.83,70.2 105.83,15.44 113.41,15.44 136.79,58.94 136.79,15.44 140.09,15.44 140.09,70.2 
		133.11,70.2 109.28,25.52 109.28,70.2 	"/>
	<polygon class="st0" points="14.66,10.27 9.75,10.27 16.12,0.01 25.85,0.01 	"/>
	<g>
		<path class="st0" d="M28.43,78h1.56c1.22,0,2.23,0.42,2.23,1.77c0,1.31-1.03,1.78-2.1,1.78h-0.84v2.36h-0.85V78z M29.28,80.8h0.84
			c0.53,0,1.19-0.26,1.19-1.04c0-0.74-0.78-1.01-1.31-1.01h-0.72V80.8z"/>
		<path class="st0" d="M33.59,78h1.46c1.18,0,2.31,0.19,2.31,1.6c0,0.72-0.54,1.23-1.23,1.34v0.02c0.26,0.1,0.4,0.22,0.58,0.59
			l1.12,2.35h-0.97l-0.91-2.05c-0.26-0.57-0.55-0.57-1-0.57h-0.51v2.62h-0.85V78z M34.45,80.53h0.72c0.81,0,1.29-0.36,1.29-0.92
			c0-0.53-0.41-0.87-1.19-0.87h-0.82V80.53z"/>
		<path class="st0" d="M42.12,77.89c1.81,0,2.86,1.3,2.86,3.05c0,1.79-1.05,3.05-2.86,3.05c-1.81,0-2.86-1.26-2.86-3.05
			C39.26,79.2,40.32,77.89,42.12,77.89 M42.12,83.26c1.37,0,1.96-1.13,1.96-2.31c0-1.2-0.65-2.31-1.96-2.31
			c-1.31,0-1.96,1.11-1.96,2.31C40.16,82.12,40.75,83.26,42.12,83.26"/>
		<polygon class="st0" points="46.39,78 49.55,78 49.55,78.74 47.24,78.74 47.24,80.46 49.45,80.46 49.45,81.21 47.24,81.21 
			47.24,83.9 46.39,83.9 		"/>
		<polygon class="st0" points="50.93,78 54.27,78 54.27,78.74 51.79,78.74 51.79,80.46 54.05,80.46 54.05,81.21 51.79,81.21 
			51.79,83.15 54.27,83.15 54.27,83.9 50.93,83.9 		"/>
		<path class="st0" d="M58.71,78.88c-0.43-0.17-0.67-0.25-1.12-0.25c-0.48,0-1.04,0.17-1.04,0.79c0,1.13,2.56,0.87,2.56,2.82
			c0,1.26-0.98,1.76-2.17,1.76c-0.42,0-0.83-0.12-1.22-0.25l0.09-0.79c0.29,0.12,0.8,0.29,1.24,0.29c0.49,0,1.17-0.27,1.17-0.96
			c0-1.32-2.56-0.96-2.56-2.79c0-1.05,0.83-1.61,1.91-1.61c0.39,0,0.86,0.07,1.27,0.21L58.71,78.88z"/>
		<path class="st0" d="M63.52,78.88c-0.43-0.17-0.67-0.25-1.12-0.25c-0.48,0-1.04,0.17-1.04,0.79c0,1.13,2.56,0.87,2.56,2.82
			c0,1.26-0.98,1.76-2.17,1.76c-0.42,0-0.83-0.12-1.22-0.25l0.09-0.79c0.29,0.12,0.8,0.29,1.24,0.29c0.49,0,1.17-0.27,1.17-0.96
			c0-1.32-2.56-0.96-2.56-2.79c0-1.05,0.83-1.61,1.91-1.61c0.39,0,0.86,0.07,1.27,0.21L63.52,78.88z"/>
		<rect x="65.3" y="78" class="st0" width="0.85" height="5.9"/>
		<path class="st0" d="M70.4,77.89c1.81,0,2.86,1.3,2.86,3.05c0,1.79-1.05,3.05-2.86,3.05c-1.81,0-2.86-1.26-2.86-3.05
			C67.53,79.2,68.59,77.89,70.4,77.89 M70.4,83.26c1.37,0,1.96-1.13,1.96-2.31c0-1.2-0.65-2.31-1.96-2.31
			c-1.31,0-1.96,1.11-1.96,2.31C68.43,82.12,69.02,83.26,70.4,83.26"/>
		<polygon class="st0" points="74.63,78 75.79,78 78.42,82.75 78.44,82.75 78.44,78 79.29,78 79.29,83.9 78.2,83.9 75.5,79.04 
			75.49,79.04 75.49,83.9 74.63,83.9 		"/>
		<path class="st0" d="M83.21,78h0.89l2.51,5.9h-0.93l-0.61-1.49h-2.91l-0.6,1.49h-0.9L83.21,78z M83.63,78.79l-1.18,2.93h2.37
			L83.63,78.79z"/>
		<polygon class="st0" points="87.96,78 88.82,78 88.82,83.15 91.3,83.15 91.3,83.9 87.96,83.9 		"/>
		<polygon class="st0" points="95.45,78 96.3,78 96.3,83.15 98.79,83.15 98.79,83.9 95.45,83.9 		"/>
		<rect x="100.15" y="78" class="st0" width="0.85" height="5.9"/>
		<polygon class="st0" points="102.38,78 103.54,78 106.16,82.75 106.18,82.75 106.18,78 107.03,78 107.03,83.9 105.94,83.9 
			103.25,79.04 103.23,79.04 103.23,83.9 102.38,83.9 		"/>
		<polygon class="st0" points="108.41,78 111.75,78 111.75,78.74 109.27,78.74 109.27,80.46 111.52,80.46 111.52,81.21 
			109.27,81.21 109.27,83.15 111.75,83.15 111.75,83.9 108.41,83.9 		"/>
	</g>
</g>
</svg>
