<svg width="210" height="64" viewBox="0 0 210 64" fill="none" xmlns="http://www.w3.org/2000/svg">
<path d="M70.8535 25.8899C72.4069 25.8899 73.7543 26.2061 74.9147 26.8199C76.075 27.4336 77.0107 28.3264 77.7032 29.4981C78.3956 30.6699 78.7512 31.9346 78.7512 33.311C78.7512 35.4499 77.9465 37.3284 76.3557 38.9838C74.7462 40.6391 72.7625 41.4575 70.4044 41.4575C68.2522 41.4575 66.4181 40.7693 64.8835 39.4115C63.3489 38.0538 62.5815 36.2125 62.5815 33.8876C62.5815 31.6929 63.3676 29.8143 64.9583 28.252C66.5491 26.6897 68.5142 25.8899 70.8535 25.8899ZM74.8585 33.6644C74.8585 31.3581 74.4655 29.6283 73.6795 28.4566C72.8935 27.2848 71.8829 26.7083 70.6851 26.7083C69.4873 26.7083 68.4767 27.2848 67.6907 28.4566C66.9047 29.6283 66.5117 31.3581 66.5117 33.6644C66.5117 35.9707 66.886 37.5888 67.6346 38.7978C68.3832 40.0067 69.3938 40.6205 70.6664 40.6205C71.7893 40.6205 72.7625 40.0625 73.6046 38.9652C74.4468 37.8678 74.8585 36.1009 74.8585 33.6458V33.6644Z" fill="url(#paint0_linear_1_64)"/>
<path d="M93.3489 41.3272C91.44 41.2342 88.4456 41.1785 84.4032 41.1785C82.9995 41.1785 81.8392 41.2156 80.9596 41.3086C80.7537 41.3086 80.5853 41.3272 80.4917 41.3272C80.1923 41.3272 80.0613 41.2157 80.0613 40.9925C80.0613 40.8809 80.0987 40.8065 80.1736 40.7693C80.2484 40.7321 80.4356 40.6763 80.735 40.6391C81.2029 40.5647 81.5772 40.4345 81.8205 40.2299C82.0638 40.0253 82.2509 39.7091 82.3632 39.2999C82.4755 38.8907 82.5317 37.8306 82.5504 36.1195C82.5504 34.4083 82.5691 32.381 82.5691 30.0375C82.5691 29.1075 82.4942 28.4194 82.3632 27.9916C82.2322 27.5638 82.0264 27.2662 81.7644 27.0616C81.5023 26.8756 81.1468 26.764 80.6789 26.7268C80.342 26.7268 80.1923 26.5966 80.1923 26.3549C80.1923 26.1131 80.3795 26.0201 80.7538 26.0201L84.5716 26.1317C85.1705 26.1317 85.9939 26.0945 87.042 26.0387C87.4163 26.0387 87.6783 26.0201 87.828 26.0201C88.1461 26.0201 88.3146 26.1317 88.3146 26.3549C88.3146 26.4851 88.2584 26.5595 88.1649 26.6152C88.0526 26.671 87.8093 26.7268 87.3975 26.7826C86.8922 26.857 86.5179 26.9872 86.3121 27.1732C86.1062 27.3592 85.9565 27.694 85.8816 28.1776C85.8068 28.6426 85.7694 29.7027 85.7694 31.3581V38.2956C85.7694 39.3557 85.8816 40.0067 86.0501 40.1927C86.2372 40.3973 86.5928 40.4903 87.0981 40.4903C88.352 40.4903 89.2878 40.3973 89.9053 40.1927C90.5229 39.9881 91.1031 39.6533 91.6645 39.1325C92.226 38.6304 92.8249 37.7748 93.4612 36.5658C93.5922 36.3241 93.7232 36.1939 93.8542 36.1939C94.0601 36.1939 94.1723 36.3054 94.1723 36.5286C94.1723 37.0308 93.9103 38.6304 93.3863 41.3272H93.3489Z" fill="url(#paint1_linear_1_64)"/>
<path d="M107.816 27.136C107.984 26.9315 108.153 26.7083 108.321 26.4665C108.527 26.1689 108.695 26.0201 108.845 26.0201C108.995 26.0201 109.107 26.0573 109.144 26.1317C109.182 26.2061 109.219 26.4479 109.257 26.8385L109.481 30.4095V30.8745C109.5 31.1721 109.388 31.3395 109.144 31.3395C108.976 31.3395 108.845 31.2093 108.751 30.9675C108.433 30.1677 107.872 29.2564 107.048 28.2706C106.225 27.2848 105.196 26.7827 103.96 26.7827C103.043 26.7827 102.257 27.043 101.64 27.5824C101.022 28.1032 100.536 28.8286 100.18 29.7585C99.8244 30.6885 99.656 31.7859 99.656 33.0692C99.656 35.2639 100.143 37.0122 101.116 38.3142C102.089 39.6161 103.305 40.2671 104.746 40.2671C106.318 40.2671 107.76 39.3185 109.07 37.44C109.238 37.2168 109.388 37.1052 109.519 37.1052C109.762 37.1052 109.893 37.2354 109.893 37.4772C109.893 37.9794 109.294 38.7792 108.078 39.8765C106.861 40.9739 105.364 41.5133 103.549 41.5133C101.134 41.5133 99.2442 40.7693 97.8406 39.2999C96.437 37.8306 95.7445 36.0079 95.7445 33.8504C95.7445 31.6929 96.4557 29.8329 97.8593 28.252C99.2629 26.6711 101.041 25.8899 103.193 25.8899C104.709 25.8899 106.244 26.3177 107.816 27.1546V27.136Z" fill="url(#paint2_linear_1_64)"/>
<path d="M122.656 32.9948L122.769 29.5353C122.769 28.5682 122.675 27.8614 122.469 27.4522C122.263 27.043 121.852 26.8198 121.215 26.8012C120.691 26.7826 120.429 26.6524 120.429 26.4293C120.429 26.1875 120.579 26.0759 120.897 26.0759C121.253 26.0759 121.777 26.0759 122.507 26.1317C123.424 26.1689 123.948 26.1875 124.06 26.1875C125.351 26.1875 126.493 26.1503 127.485 26.0945C127.672 26.0945 127.803 26.0759 127.878 26.0759C128.177 26.0759 128.308 26.1875 128.308 26.3921C128.308 26.6338 128.14 26.7454 127.822 26.764C127.279 26.764 126.905 26.8384 126.68 26.9872C126.456 27.1174 126.287 27.3406 126.212 27.6196C126.119 27.8986 126.063 28.903 126.006 30.6327C125.95 32.3624 125.932 33.5528 125.932 34.1851C125.932 36.8634 125.932 38.5188 125.988 39.1139C126.025 39.7091 126.156 40.1369 126.399 40.3787C126.643 40.6205 127.054 40.7321 127.635 40.7321C127.99 40.7321 128.177 40.8437 128.177 41.0669C128.177 41.2714 128.046 41.3644 127.766 41.3644C127.672 41.3644 127.466 41.3644 127.167 41.3272L123.985 41.2157C123.798 41.2157 123.424 41.2157 122.881 41.2528C121.833 41.3272 121.159 41.3644 120.86 41.3644C120.579 41.3644 120.448 41.2528 120.448 41.0297C120.448 40.8251 120.56 40.7321 120.785 40.7321C121.328 40.7321 121.739 40.6391 121.983 40.4531C122.226 40.2671 122.413 39.8207 122.525 39.1325C122.638 38.4444 122.694 37.0866 122.694 35.0221C122.694 34.8175 122.694 34.4827 122.675 34.0549C121.328 34.0177 120.149 33.9991 119.119 33.9991C117.94 33.9991 116.986 34.0363 116.312 34.1107C116.219 35.6359 116.181 37.0308 116.181 38.277C116.181 39.1697 116.275 39.7649 116.481 40.1183C116.686 40.4717 117.079 40.6391 117.697 40.6763C117.996 40.6763 118.146 40.8065 118.146 41.0111C118.146 41.2156 117.996 41.3272 117.678 41.3272C117.566 41.3272 117.398 41.3272 117.173 41.29C116.256 41.1971 115.302 41.1599 114.31 41.1599C113.842 41.1599 113.224 41.1785 112.438 41.2157C111.877 41.2528 111.521 41.2714 111.371 41.2714C110.978 41.2714 110.772 41.1599 110.772 40.9367C110.772 40.7507 110.922 40.6391 111.24 40.6019C111.839 40.5461 112.232 40.4159 112.438 40.2299C112.644 40.0439 112.812 39.6719 112.906 39.1511C113.018 38.6304 113.074 37.1052 113.093 34.6315C113.093 32.1392 113.131 30.7815 113.131 30.5583C113.131 29.4237 113.093 28.624 113.018 28.1032C112.943 27.601 112.794 27.2476 112.607 27.0802C112.419 26.9128 112.12 26.8012 111.727 26.7454C111.428 26.7082 111.222 26.6524 111.147 26.6152C111.072 26.578 111.035 26.4851 111.035 26.3549C111.035 26.1317 111.166 26.0201 111.428 26.0201C111.764 26.0201 112.307 26.0573 113.093 26.1131C113.524 26.1503 114.029 26.1503 114.572 26.1503L117.809 26.0387C118.184 26.0387 118.371 26.1503 118.371 26.3921C118.371 26.6338 118.221 26.7268 117.903 26.7268C117.398 26.7268 117.042 26.7826 116.855 26.9128C116.668 27.043 116.518 27.2662 116.424 27.6382C116.331 27.9916 116.293 28.6984 116.293 29.7213V32.9762C117.285 33.0692 118.333 33.125 119.475 33.125C120.617 33.125 121.665 33.0692 122.713 32.9762L122.656 32.9948Z" fill="url(#paint3_linear_1_64)"/>
<path d="M136.188 25.6853H136.974C137.984 27.8614 139.407 31.2837 141.259 35.9707C142.102 38.1096 142.701 39.4115 143.019 39.8765C143.337 40.3415 143.842 40.6205 144.553 40.7135C144.778 40.7507 144.89 40.8437 144.89 41.0111C144.89 41.2529 144.74 41.3645 144.441 41.3645C144.273 41.3645 143.861 41.3459 143.187 41.2901C142.382 41.2157 141.727 41.1785 141.166 41.1785C140.604 41.1785 139.949 41.2157 139.089 41.2715C138.452 41.3087 138.041 41.3459 137.835 41.3459C137.479 41.3459 137.311 41.2343 137.311 41.0111C137.311 40.8437 137.442 40.7507 137.685 40.7321C138.621 40.6391 139.107 40.2857 139.107 39.6347C139.107 39.3371 138.976 38.7606 138.696 37.9422C138.415 37.1238 138.134 36.3799 137.816 35.7103C137.311 35.7103 136.936 35.7103 136.656 35.7103C135.102 35.7103 133.905 35.7103 133.044 35.7103C132.389 37.5144 132.052 38.7048 132.052 39.2813C132.052 39.6905 132.22 40.0253 132.538 40.2485C132.875 40.4717 133.231 40.6205 133.605 40.6577C133.905 40.6949 134.036 40.8065 134.036 41.0111C134.036 41.2157 133.886 41.3273 133.568 41.3273C133.437 41.3273 133.118 41.3087 132.594 41.2715C131.921 41.2157 131.434 41.1971 131.116 41.1971C130.517 41.1971 129.937 41.2343 129.394 41.3087C129.263 41.3273 129.132 41.3459 129.057 41.3459C128.777 41.3459 128.627 41.2343 128.627 41.0111C128.627 40.8437 128.72 40.7321 128.908 40.6763C129.376 40.5461 129.731 40.3973 129.993 40.1927C130.255 40.0067 130.536 39.6347 130.835 39.0954C131.135 38.556 131.509 37.7004 131.921 36.5101C132.875 33.8504 134.298 30.2421 136.169 25.7039L136.188 25.6853ZM135.383 29.6655L133.381 34.7803L137.442 34.7245C137.236 34.1294 136.899 33.311 136.45 32.2694C135.963 31.1349 135.608 30.2793 135.364 29.6841L135.383 29.6655Z" fill="url(#paint4_linear_1_64)"/>
<path d="M149.793 26.0759C153.462 30.2235 156.531 33.5528 158.982 36.0637C158.982 35.5429 158.982 35.2081 158.982 35.0593V30.5397C158.982 29.4795 158.926 28.717 158.814 28.252C158.702 27.787 158.421 27.4336 158.028 27.1546C157.635 26.8756 157.167 26.7268 156.643 26.6896C156.362 26.6525 156.213 26.5409 156.213 26.3363C156.213 26.1131 156.344 26.0015 156.606 26.0015C156.755 26.0015 156.943 26.0015 157.167 26.0387C157.598 26.0945 158.253 26.1131 159.095 26.1131C160.143 26.1131 160.948 26.0945 161.509 26.0387C161.734 26.0201 161.939 26.0015 162.089 26.0015C162.389 26.0015 162.52 26.1131 162.52 26.3363C162.52 26.5595 162.332 26.671 161.939 26.7082C161.453 26.7454 161.004 26.95 160.592 27.322C160.18 27.694 159.974 28.3822 159.974 29.4423L160.03 35.8963L159.956 40.7507C159.956 41.1599 159.825 41.383 159.563 41.383C159.488 41.383 159.413 41.3644 159.319 41.3086C159.226 41.2714 158.702 40.7321 157.747 39.7277C156.793 38.7234 155.352 37.161 153.462 35.0407C151.571 32.9204 150.243 31.3953 149.475 30.4839C149.475 30.6885 149.457 32.6042 149.457 36.2311C149.457 37.347 149.513 38.2212 149.606 38.8721C149.7 39.5231 149.999 39.9695 150.505 40.2485C151.01 40.5275 151.459 40.6763 151.871 40.6763C152.133 40.6763 152.264 40.7693 152.264 40.9739C152.264 41.1971 152.133 41.3086 151.852 41.3086C151.684 41.3086 151.459 41.3087 151.178 41.2715C150.71 41.2157 150.13 41.1785 149.419 41.1785C148.278 41.1785 147.454 41.2157 146.93 41.2901C146.612 41.3273 146.387 41.3458 146.238 41.3458C145.938 41.3458 145.788 41.2157 145.788 40.9739C145.788 40.7879 146.032 40.6763 146.518 40.6391C147.379 40.5647 147.922 40.2671 148.147 39.7463C148.371 39.2255 148.465 38.5002 148.465 37.6074C148.465 33.683 148.446 31.2837 148.409 30.3909C148.371 29.5167 148.09 28.717 147.585 28.0102C147.08 27.3034 146.462 26.8756 145.732 26.7454C145.433 26.6896 145.283 26.5781 145.283 26.3921C145.283 26.1317 145.433 26.0201 145.751 26.0201C145.826 26.0201 145.938 26.0201 146.088 26.0387C146.256 26.0387 146.574 26.0573 147.042 26.0573C148.034 26.0573 148.97 26.0573 149.831 26.0945L149.793 26.0759Z" fill="url(#paint5_linear_1_64)"/>
<path d="M172.158 25.8899C173.711 25.8899 175.059 26.2061 176.219 26.8199C177.379 27.4336 178.315 28.3264 179.007 29.4981C179.7 30.6699 180.056 31.9346 180.056 33.311C180.056 35.4499 179.251 37.3284 177.66 38.9838C176.051 40.6391 174.067 41.4575 171.709 41.4575C169.556 41.4575 167.722 40.7693 166.188 39.4115C164.653 38.0538 163.886 36.2125 163.886 33.8876C163.886 31.6929 164.672 29.8143 166.263 28.252C167.853 26.6897 169.818 25.8899 172.158 25.8899ZM176.163 33.6644C176.163 31.3581 175.77 29.6283 174.984 28.4566C174.198 27.2848 173.187 26.7083 171.989 26.7083C170.792 26.7083 169.781 27.2848 168.995 28.4566C168.209 29.6283 167.816 31.3581 167.816 33.6644C167.816 35.9707 168.19 37.5888 168.939 38.7978C169.687 40.0067 170.698 40.6205 171.971 40.6205C173.094 40.6205 174.067 40.0625 174.909 38.9652C175.751 37.8678 176.163 36.1009 176.163 33.6458V33.6644Z" fill="url(#paint6_linear_1_64)"/>
<path d="M188.477 41.4947H187.56L185.445 36.0079C184.921 34.6129 184.247 32.9204 183.424 30.9303C182.6 28.9402 182.095 27.7684 181.852 27.4522C181.627 27.136 181.421 26.9129 181.216 26.8199C181.01 26.7269 180.748 26.6525 180.355 26.6153C180.111 26.6153 179.98 26.5037 179.98 26.2991C179.98 26.0759 180.13 25.9643 180.411 25.9643L183.517 26.0759C184.603 26.0759 185.67 26.0387 186.718 25.9643C187.017 25.9643 187.186 25.9457 187.242 25.9457C187.616 25.9457 187.784 26.0759 187.784 26.3177C187.784 26.4851 187.616 26.5967 187.298 26.6339C186.418 26.7455 185.988 27.136 185.988 27.8056C185.988 28.9774 186.998 32.1392 189.02 37.2726C189.693 35.5987 190.33 33.8876 190.947 32.1764L192.07 29.0332C192.201 28.6426 192.257 28.2892 192.257 27.9358C192.257 27.5824 192.126 27.2662 191.883 27.0244C191.64 26.7641 191.359 26.6525 191.041 26.6339C190.685 26.6339 190.517 26.5223 190.517 26.3177C190.517 26.0759 190.667 25.9457 190.947 25.9457C191.153 25.9457 191.434 25.9457 191.752 25.9829C192.407 26.0387 192.987 26.0573 193.511 26.0573C194.035 26.0573 194.541 26.0387 194.952 25.9829C195.27 25.9457 195.532 25.9271 195.738 25.9271C196 25.9271 196.131 26.0387 196.131 26.2805C196.131 26.4851 196 26.5967 195.738 26.6339C195.327 26.6897 194.99 26.8385 194.69 27.043C194.391 27.2662 194.11 27.601 193.829 28.0846C193.549 28.5682 193.081 29.6469 192.426 31.3209L190.386 36.5659C189.413 39.1325 188.758 40.7507 188.421 41.4575L188.477 41.4947Z" fill="url(#paint7_linear_1_64)"/>
<path d="M201.297 25.6853H202.083C203.093 27.8614 204.516 31.2837 206.368 35.9707C207.211 38.1096 207.809 39.4115 208.128 39.8765C208.446 40.3415 208.951 40.6205 209.662 40.7135C209.887 40.7507 209.999 40.8437 209.999 41.0111C209.999 41.2529 209.849 41.3645 209.55 41.3645C209.382 41.3645 208.97 41.3459 208.296 41.2901C207.491 41.2157 206.836 41.1785 206.275 41.1785C205.713 41.1785 205.058 41.2157 204.198 41.2715C203.561 41.3087 203.149 41.3459 202.944 41.3459C202.588 41.3459 202.42 41.2343 202.42 41.0111C202.42 40.8437 202.551 40.7507 202.794 40.7321C203.73 40.6391 204.216 40.2857 204.216 39.6347C204.216 39.3371 204.085 38.7606 203.805 37.9422C203.524 37.1238 203.243 36.3799 202.925 35.7103C202.42 35.7103 202.045 35.7103 201.765 35.7103C200.211 35.7103 199.013 35.7103 198.153 35.7103C197.498 37.5144 197.161 38.7048 197.161 39.2813C197.161 39.6905 197.329 40.0253 197.647 40.2485C197.984 40.4717 198.34 40.6205 198.714 40.6577C199.013 40.6949 199.145 40.8065 199.145 41.0111C199.145 41.2157 198.995 41.3273 198.677 41.3273C198.546 41.3273 198.227 41.3087 197.703 41.2715C197.03 41.2157 196.543 41.1971 196.225 41.1971C195.626 41.1971 195.046 41.2343 194.503 41.3087C194.372 41.3273 194.241 41.3459 194.166 41.3459C193.886 41.3459 193.736 41.2343 193.736 41.0111C193.736 40.8437 193.829 40.7321 194.017 40.6763C194.484 40.5461 194.84 40.3973 195.102 40.1927C195.364 40.0067 195.645 39.6347 195.944 39.0954C196.244 38.556 196.618 37.7004 197.03 36.5101C197.984 33.8504 199.407 30.2421 201.278 25.7039L201.297 25.6853ZM200.492 29.6655L198.489 34.7803L202.551 34.7245C202.345 34.1294 202.008 33.311 201.559 32.2694C201.072 31.1349 200.717 30.2793 200.473 29.6841L200.492 29.6655Z" fill="url(#paint8_linear_1_64)"/>
<path d="M40.7424 64H33.5371L2.37679 5.18919C2.11478 4.70561 1.60948 4.40802 1.06675 4.40802H0V0H41.5845V4.38942H39.1142C37.6731 4.38942 36.7374 5.91456 37.4111 7.19791L51.335 33.4972L65.2589 7.19791C65.9326 5.93316 64.9969 4.38942 63.5558 4.38942H59.7754V0H78V4.38942H74.5041C73.6806 4.38942 72.932 4.8172 72.539 5.52398L52.7012 40.2116C52.0836 41.3089 50.4928 41.3089 49.8565 40.2116L30.0187 5.72857C29.5321 4.8916 28.6525 4.38942 27.6794 4.38942H12.277C10.8359 4.38942 9.90019 5.91456 10.5739 7.17931L40.7424 63.9814V64Z" fill="url(#paint9_linear_1_64)"/>
<defs>
<linearGradient id="paint0_linear_1_64" x1="61.6505" y1="34.598" x2="209.999" y2="34.598" gradientUnits="userSpaceOnUse">
<stop stop-color="white"/>
<stop offset="1" stop-color="white" stop-opacity="0.1"/>
</linearGradient>
<linearGradient id="paint1_linear_1_64" x1="61.6505" y1="34.598" x2="209.999" y2="34.598" gradientUnits="userSpaceOnUse">
<stop stop-color="white"/>
<stop offset="1" stop-color="white" stop-opacity="0.1"/>
</linearGradient>
<linearGradient id="paint2_linear_1_64" x1="61.6505" y1="34.598" x2="209.999" y2="34.598" gradientUnits="userSpaceOnUse">
<stop stop-color="white"/>
<stop offset="1" stop-color="white" stop-opacity="0.1"/>
</linearGradient>
<linearGradient id="paint3_linear_1_64" x1="61.6505" y1="34.598" x2="209.999" y2="34.598" gradientUnits="userSpaceOnUse">
<stop stop-color="white"/>
<stop offset="1" stop-color="white" stop-opacity="0.1"/>
</linearGradient>
<linearGradient id="paint4_linear_1_64" x1="61.6505" y1="34.598" x2="209.999" y2="34.598" gradientUnits="userSpaceOnUse">
<stop stop-color="white"/>
<stop offset="1" stop-color="white" stop-opacity="0.1"/>
</linearGradient>
<linearGradient id="paint5_linear_1_64" x1="61.6505" y1="34.598" x2="209.999" y2="34.598" gradientUnits="userSpaceOnUse">
<stop stop-color="white"/>
<stop offset="1" stop-color="white" stop-opacity="0.1"/>
</linearGradient>
<linearGradient id="paint6_linear_1_64" x1="61.6505" y1="34.598" x2="209.999" y2="34.598" gradientUnits="userSpaceOnUse">
<stop stop-color="white"/>
<stop offset="1" stop-color="white" stop-opacity="0.1"/>
</linearGradient>
<linearGradient id="paint7_linear_1_64" x1="61.6505" y1="34.598" x2="209.999" y2="34.598" gradientUnits="userSpaceOnUse">
<stop stop-color="white"/>
<stop offset="1" stop-color="white" stop-opacity="0.1"/>
</linearGradient>
<linearGradient id="paint8_linear_1_64" x1="61.6505" y1="34.598" x2="209.999" y2="34.598" gradientUnits="userSpaceOnUse">
<stop stop-color="white"/>
<stop offset="1" stop-color="white" stop-opacity="0.1"/>
</linearGradient>
<linearGradient id="paint9_linear_1_64" x1="8.25688" y1="15.7265" x2="210" y2="15.7265" gradientUnits="userSpaceOnUse">
<stop offset="0.280071" stop-color="white"/>
<stop offset="0.836733" stop-color="#9D9D9D"/>
<stop offset="1" stop-color="#1C1C1C"/>
</linearGradient>
</defs>
</svg>
